<?xml version="1.0" encoding="utf-8"?>
<!-- Generator: Adobe Illustrator 15.0.0, SVG Export Plug-In . SVG Version: 6.00 Build 0)  -->
<!DOCTYPE svg PUBLIC "-//W3C//DTD SVG 1.1//EN" "http://www.w3.org/Graphics/SVG/1.1/DTD/svg11.dtd">
<svg version="1.1" id="Layer_1" xmlns="http://www.w3.org/2000/svg" xmlns:xlink="http://www.w3.org/1999/xlink" x="0px" y="0px"
	 width="250px" height="250px" viewBox="0 0 250 250" enable-background="new 0 0 250 250" xml:space="preserve">
<circle fill="#FCFC1D" stroke="#8E7702" stroke-miterlimit="10" cx="125" cy="125" r="106.356"/>
<path fill="#020202" d="M115.232,201.104c0,0,10.805,0.792,10.512-8.308c0,0,1.169-10.154-9.782-10.418
	c-10.95-0.264-11.243,10.022-11.243,11.078c0,1.055,0.585,7.384,6.717,11.078c6.133,3.691,8.761,4.086,12.41,4.22
	c3.649,0.133,13.434-1.452,16.498-8.439c3.067-6.992,3.067-13.85-1.604-32.312l-11.535-61.587l-4.381-22.683
	c0,0,0-24.266,12.848-25.848c0,0,11.827,5.539-2.92,24.661c0,0-32.412,29.277-36.647,38.376c0,0-6.277,8.837-2.774,23.344
	c0,0,3.65,16.221,20.002,23.737c0,0,9.198,4.087,21.608,1.584c0,0,18.398-4.881,20.441-21.102c0,0,4.674-22.946-20.147-26.244
	c0,0-18.25-1.451-23.654,16.748c0,0-1.443,16.812,12.419,20.574h2.183l0.437-1.717c0,0-6.278-3.428-8.176-7.647
	c0,0-2.48-11.343,9.929-15.562c0,0,9.929-2.109,15.476,4.483c0,0,11.828,12.528-3.943,24.397c0,0-3.209,5.144-21.169,2.374
	c0,0-25.843-8.44-15.624-34.815c0,0,9.653-15.035,20.888-21.76c0,0,21.163-15.167,20.581-35.475c0,0,2.331-22.155-10.955-30.597
	c0,0-6.86-0.923-14.307,19.915c0,0-3.066,13.188-0.438,22.55l6.716,35.211l8.028,41.41l4.382,22.155c0,0,3.651,14.639-8.906,20.047
	c0,0-3.358,1.055-7.591,0.527C117.276,204.534,115.232,201.104,115.232,201.104z"/>
</svg>
