<?xml version="1.0" encoding="utf-8"?>
<!-- Generator: Adobe Illustrator 15.0.0, SVG Export Plug-In . SVG Version: 6.00 Build 0)  -->
<!DOCTYPE svg PUBLIC "-//W3C//DTD SVG 1.1//EN" "http://www.w3.org/Graphics/SVG/1.1/DTD/svg11.dtd">
<svg version="1.1"
	 id="svg3964" xmlns:inkscape="http://www.inkscape.org/namespaces/inkscape" xmlns:dc="http://purl.org/dc/elements/1.1/" xmlns:svg="http://www.w3.org/2000/svg" xmlns:rdf="http://www.w3.org/1999/02/22-rdf-syntax-ns#" xmlns:cc="http://creativecommons.org/ns#" inkscape:version="0.48.4 r9939" xmlns:sodipodi="http://sodipodi.sourceforge.net/DTD/sodipodi-0.dtd" sodipodi:docname="stat_notify_received-xhdpi.svg"
	 xmlns="http://www.w3.org/2000/svg" xmlns:xlink="http://www.w3.org/1999/xlink" x="0px" y="0px" width="37px" height="48px"
	 viewBox="0 0 37 48" enable-background="new 0 0 37 48" xml:space="preserve">
<sodipodi:namedview  inkscape:window-x="0" inkscape:zoom="5" bordercolor="#666666" inkscape:current-layer="svg3964" pagecolor="#ffffff" inkscape:pageshadow="2" id="namedview3968" inkscape:window-height="480" borderopacity="1" inkscape:cx="24.211465" guidetolerance="10" inkscape:window-maximized="0" inkscape:pageopacity="0" showgrid="false" objecttolerance="10" inkscape:window-y="25" inkscape:window-width="747" gridtolerance="10" inkscape:cy="20.855847">
	</sodipodi:namedview>
<path fill="#FCFCFC" d="M15.224,45.956c0,0,2.832,0.23,2.755-2.419c0,0,0.307-2.957-2.564-3.033
	c-2.871-0.077-2.946,2.918-2.946,3.225s0.153,2.15,1.761,3.226c1.607,1.074,2.296,1.188,3.253,1.229
	c0.956,0.038,3.521-0.423,4.324-2.458c0.803-2.035,0.803-4.031-0.421-9.404l-3.023-17.929l-1.148-6.604c0,0,0-7.063,3.369-7.524
	c0,0,3.1,1.612-0.766,7.179c0,0-8.497,8.523-9.607,11.171c0,0-1.646,2.572-0.728,6.795c0,0,0.957,4.722,5.243,6.911
	c0,0,2.411,1.188,5.664,0.46c0,0,4.824-1.422,5.359-6.144c0,0,1.225-6.68-5.281-7.639c0,0-4.785-0.422-6.2,4.875
	c0,0-0.379,4.894,3.255,5.989h0.572l0.115-0.499c0,0-1.646-0.998-2.144-2.227c0,0-0.65-3.301,2.603-4.531
	c0,0,2.602-0.613,4.057,1.307c0,0,3.1,3.647-1.033,7.102c0,0-0.842,1.498-5.55,0.691c0,0-6.774-2.456-4.095-10.136
	c0,0,2.53-4.376,5.475-6.333c0,0,5.548-4.415,5.395-10.327c0,0,0.611-6.449-2.871-8.907c0,0-1.798-0.269-3.75,5.796
	c0,0-0.804,3.84-0.115,6.566l1.761,10.25l2.104,12.055l1.149,6.45c0,0,0.956,4.26-2.335,5.835c0,0-0.88,0.307-1.99,0.152
	C15.76,46.954,15.224,45.956,15.224,45.956z"/>
</svg>
